<svg width="31" height="31" viewBox="0 0 31 31" fill="none" xmlns="http://www.w3.org/2000/svg">
<path fill-rule="evenodd" clip-rule="evenodd" d="M16.3313 0.315244C15.8419 -0.105081 15.1189 -0.105081 14.6295 0.315243L12.7264 1.94962C12.4116 2.22002 11.9869 2.32468 11.5825 2.23157L9.13788 1.6688C8.50919 1.52406 7.869 1.86006 7.63098 2.45968L6.70544 4.79124C6.55231 5.17699 6.22496 5.467 5.82357 5.57251L3.39745 6.21026C2.77351 6.37427 2.3628 6.96929 2.43069 7.61085L2.6947 10.1055C2.73838 10.5182 2.5833 10.9271 2.27692 11.2071L0.425072 12.8992C-0.0511811 13.3344 -0.138329 14.0522 0.219937 14.5887L1.61301 16.6749C1.84349 17.02 1.8962 17.4541 1.75502 17.8444L0.901685 20.2034C0.682226 20.81 0.938605 21.4861 1.50517 21.7946L3.70817 22.9944C4.07264 23.193 4.32108 23.5529 4.37744 23.9641L4.7181 26.4494C4.80571 27.0885 5.34689 27.568 5.99195 27.5779L8.5002 27.6165C8.91518 27.6229 9.30242 27.8261 9.54341 28.164L11 30.2063C11.3746 30.7316 12.0766 30.9046 12.6524 30.6136L14.8913 29.4822C15.2617 29.295 15.6991 29.295 16.0695 29.4822L18.3084 30.6136C18.8841 30.9046 19.5861 30.7316 19.9607 30.2063L21.4174 28.164C21.6584 27.8261 22.0456 27.6229 22.4606 27.6165L24.9688 27.5779C25.6139 27.568 26.1551 27.0885 26.2427 26.4494L26.5833 23.9641C26.6397 23.5529 26.8881 23.193 27.2526 22.9944L29.4556 21.7946C30.0222 21.4861 30.2785 20.81 30.0591 20.2034L29.2058 17.8444C29.0646 17.4541 29.1173 17.02 29.3478 16.6749L30.7408 14.5887C31.0991 14.0522 31.012 13.3344 30.5357 12.8992L28.6839 11.2071C28.3775 10.9271 28.2224 10.5182 28.2661 10.1055L28.5301 7.61085C28.598 6.96929 28.1873 6.37427 27.5633 6.21026L25.1372 5.57251C24.7358 5.467 24.4085 5.17699 24.2553 4.79125L23.3298 2.45968C23.0918 1.86006 22.4516 1.52406 21.8229 1.6688L19.3783 2.23157C18.9738 2.32468 18.5492 2.22002 18.2344 1.94962L16.3313 0.315244ZM16.4949 8.97121C16.1264 8.23416 15.0746 8.23416 14.706 8.97121L13.2465 11.8903C13.097 12.1894 12.8079 12.3939 12.4761 12.4354L9.71329 12.7808C8.91305 12.8808 8.55431 13.8383 9.09178 14.4395L11.0694 16.6517C11.2724 16.8788 11.3608 17.186 11.3096 17.4862L10.7453 20.7977C10.6077 21.605 11.4457 22.2264 12.1782 21.8601L15.1533 20.3726C15.4348 20.2319 15.7662 20.2319 16.0477 20.3726L19.0259 21.8617C19.7578 22.2277 20.5954 21.6076 20.4591 20.8007L19.899 17.4847C19.8484 17.1853 19.9366 16.8792 20.1387 16.6526L22.1127 14.4389C22.6491 13.8375 22.2901 12.8811 21.4904 12.7811L18.7249 12.4354C18.3931 12.3939 18.104 12.1894 17.9545 11.8903L16.4949 8.97121Z" fill="white"/>
</svg>
